<svg width="52" height="52" viewBox="0 0 52 52" fill="none" xmlns="http://www.w3.org/2000/svg">
<path d="M0 26C0 11.6406 11.6406 0 26 0V0C40.3594 0 52 11.6406 52 26V26C52 40.3594 40.3594 52 26 52V52C11.6406 52 0 40.3594 0 26V26Z" fill="#F9F5FF"/>
<path d="M8 26C8 16.0589 16.0589 8 26 8V8C35.9411 8 44 16.0589 44 26V26C44 35.9411 35.9411 44 26 44V44C16.0589 44 8 35.9411 8 26V26Z" fill="#F4EBFF"/>
<path d="M24.2045 24.2545C24.2045 23.8253 24.5525 23.4773 24.9818 23.4773H26.0182C26.4475 23.4773 26.7955 23.8253 26.7955 24.2545C26.7955 24.6838 26.4475 25.0318 26.0182 25.0318H24.9818C24.5525 25.0318 24.2045 24.6838 24.2045 24.2545Z" fill="#7F56D9"/>
<path d="M24.2045 28.5727C24.2045 28.1435 24.5525 27.7955 24.9818 27.7955H26.0182C26.4475 27.7955 26.7955 28.1435 26.7955 28.5727C26.7955 29.002 26.4475 29.35 26.0182 29.35H24.9818C24.5525 29.35 24.2045 29.002 24.2045 28.5727Z" fill="#7F56D9"/>
<path fill-rule="evenodd" clip-rule="evenodd" d="M17.7273 22.1818C17.7273 21.7525 18.0753 21.4045 18.5045 21.4045H20.4692C20.8723 20.7712 21.3917 20.2192 21.9974 19.7784L20.5458 18.3269C20.2423 18.0233 20.2423 17.5312 20.5458 17.2277C20.8494 16.9241 21.3415 16.9241 21.6451 17.2277L23.4283 19.0109C24.0735 18.7716 24.7715 18.6409 25.5 18.6409C26.2285 18.6409 26.9265 18.7716 27.5717 19.0109L29.3549 17.2277C29.6585 16.9241 30.1506 16.9241 30.4542 17.2277C30.7577 17.5312 30.7577 18.0233 30.4542 18.3269L29.0026 19.7784C29.6083 20.2192 30.1277 20.7712 30.5308 21.4045H32.4955C32.9247 21.4045 33.2727 21.7525 33.2727 22.1818C33.2727 22.6111 32.9247 22.9591 32.4955 22.9591H31.2303C31.3793 23.4804 31.4591 24.0309 31.4591 24.6V25.7227H34.2227C34.652 25.7227 35 26.0707 35 26.5C35 26.9293 34.652 27.2773 34.2227 27.2773H31.4591V28.2273C31.4591 28.8596 31.3606 29.469 31.1781 30.0409H32.4955C32.9247 30.0409 33.2727 30.3889 33.2727 30.8182C33.2727 31.2474 32.9247 31.5954 32.4955 31.5954H30.4166C29.3426 33.1601 27.5412 34.1864 25.5 34.1864C23.4588 34.1864 21.6574 33.1601 20.5834 31.5954H18.5045C18.0753 31.5954 17.7273 31.2474 17.7273 30.8182C17.7273 30.3889 18.0753 30.0409 18.5045 30.0409H19.8219C19.6394 29.469 19.5409 28.8596 19.5409 28.2273V27.2773H16.7773C16.348 27.2773 16 26.9293 16 26.5C16 26.0707 16.348 25.7227 16.7773 25.7227H19.5409V24.6C19.5409 24.0309 19.6207 23.4804 19.7697 22.9591H18.5045C18.0753 22.9591 17.7273 22.6111 17.7273 22.1818ZM21.0955 24.6C21.0955 22.1674 23.0674 20.1954 25.5 20.1954C27.9326 20.1954 29.9045 22.1674 29.9045 24.6V28.2273C29.9045 30.6598 27.9326 32.6318 25.5 32.6318C23.0674 32.6318 21.0955 30.6598 21.0955 28.2273V24.6Z" fill="#7F56D9"/>
<path fill-rule="evenodd" clip-rule="evenodd" d="M24.2045 24.2545C24.2045 23.8253 24.5525 23.4773 24.9818 23.4773H26.0182C26.4475 23.4773 26.7955 23.8253 26.7955 24.2545C26.7955 24.6838 26.4475 25.0318 26.0182 25.0318H24.9818C24.5525 25.0318 24.2045 24.6838 24.2045 24.2545ZM24.2045 28.5727C24.2045 28.1435 24.5525 27.7955 24.9818 27.7955H26.0182C26.4475 27.7955 26.7955 28.1435 26.7955 28.5727C26.7955 29.002 26.4475 29.35 26.0182 29.35H24.9818C24.5525 29.35 24.2045 29.002 24.2045 28.5727Z" fill="#7F56D9"/>
</svg>
