<svg width="20" height="20" viewBox="0 0 20 20" fill="none" xmlns="http://www.w3.org/2000/svg">
<path fill-rule="evenodd" clip-rule="evenodd" d="M7.983 2.2502H6C5.18008 2.2502 4.34513 2.6182 3.81386 3.28229L0.931698 6.88499C0.667838 7.21481 0.540545 7.61549 0.548575 8.01352C0.548621 8.01581 0.548672 8.0181 0.548727 8.02038C0.558166 8.41232 0.698827 8.80128 0.96952 9.11709L8.6713 18.1025C9.36971 18.9173 10.6303 18.9173 11.3287 18.1025L19.0305 9.11709C19.3011 8.80134 19.4418 8.41246 19.4513 8.02061C19.4513 8.01784 19.4514 8.01508 19.4514 8.01231C19.4592 7.61468 19.3319 7.21448 19.0683 6.88499L16.1861 3.28229C15.6549 2.6182 14.8199 2.2502 14 2.2502H11.9825C11.971 2.24993 11.994 2.24993 11.9825 2.2502H7.983C7.99447 2.24993 7.97149 2.24993 7.983 2.2502ZM11.4922 3.7502H8.50778L7.10778 7.2502H12.8922L11.4922 3.7502ZM13.1077 3.7502L14.5077 7.2502H17.4395L15.0148 4.21933C14.787 3.93456 14.3952 3.7502 14 3.7502H13.1077ZM17.3693 8.7502H14.4874L11.3838 15.7333L17.3693 8.7502ZM10 15.1535L12.8459 8.7502H7.15408L10 15.1535ZM5.5126 8.7502L8.61622 15.7333L2.63066 8.7502H5.5126ZM5.49223 7.2502L6.89223 3.7502H6C5.60479 3.7502 5.21298 3.93456 4.98516 4.21933L2.56046 7.2502H5.49223Z" fill="#107569"/>
</svg>
