<svg width="24" height="24" viewBox="0 0 24 24" fill="none" xmlns="http://www.w3.org/2000/svg">
<path fill-rule="evenodd" clip-rule="evenodd" d="M9.52935 3.05266C9.30636 2.99912 9.07932 2.99964 8.88745 3.00008L6.0646 3.00016C5.53473 3.00014 5.08355 3.00013 4.71312 3.0304C4.32396 3.06219 3.94536 3.13183 3.58343 3.31624C3.03776 3.59427 2.59412 4.03792 2.31608 4.58359C2.13167 4.94552 2.06203 5.32411 2.03024 5.71327C1.99997 6.0837 1.99999 6.53487 2 7.06473V15.9356C1.99999 16.4654 1.99997 16.9166 2.03024 17.2871C2.06204 17.6762 2.13167 18.0548 2.31608 18.4167C2.59412 18.9624 3.03776 19.4061 3.58343 19.6841C3.94536 19.8685 4.32396 19.9381 4.71312 19.9699C5.08354 20.0002 5.53472 20.0002 6.06458 20.0002H17.9354C18.4652 20.0002 18.9164 20.0002 19.2869 19.9699C19.676 19.9381 20.0546 19.8685 20.4165 19.6841C20.9622 19.4061 21.4059 18.9624 21.6839 18.4167C21.8683 18.0548 21.9379 17.6762 21.9697 17.2871C22 16.9166 22 16.4655 22 15.9356V9.06476C22 8.5349 22 8.0837 21.9697 7.71328C21.9379 7.32412 21.8683 6.94552 21.6839 6.58359C21.4059 6.03792 20.9622 5.59428 20.4165 5.31625C20.0546 5.13185 19.6761 5.0622 19.287 5.0304C18.9167 5.00014 18.4656 5.00015 17.9359 5.00016L12.1608 5.00016C12.0313 5.00016 11.9639 4.99995 11.914 4.99766C11.8661 4.99546 11.8806 5.00131 11.8452 4.96903C11.808 4.93509 11.7598 4.88714 11.6678 4.79512L10.6047 3.73201L10.5693 3.69655C10.4341 3.56073 10.2741 3.39996 10.0786 3.28014C9.90855 3.17597 9.72322 3.0992 9.52935 3.05266ZM8.83727 4.80016C8.9674 4.80016 9.03542 4.80037 9.08572 4.80267C9.13363 4.80486 9.11929 4.79888 9.15474 4.83122C9.19184 4.86508 9.23997 4.91291 9.33187 5.0048L10.395 6.06791C10.5586 6.232 10.7226 6.39832 10.9215 6.52018C11.0915 6.62436 11.2768 6.70112 11.4707 6.74767C11.6968 6.80196 11.9297 6.80052 12.1608 6.80016H17.9005C18.4753 6.80016 18.8521 6.80087 19.1404 6.82442C19.4181 6.84712 19.5334 6.88647 19.5994 6.92006C19.8063 7.02552 19.9746 7.1938 20.0801 7.40077C20.1137 7.46667 20.153 7.58201 20.1757 7.85986C20.1993 8.1482 20.2 8.52523 20.2 9.1001H3.8V7.10016C3.8 6.52526 3.8007 6.14821 3.82426 5.85985C3.84696 5.582 3.88632 5.46666 3.91989 5.40077C4.02536 5.19379 4.19363 5.02551 4.40061 4.92005C4.4665 4.88648 4.58185 4.84712 4.85969 4.82442C5.14805 4.80086 5.5251 4.80016 6.1 4.80016H8.83727ZM3.8 10.9001V15.9002C3.8 16.4751 3.8007 16.8521 3.82426 17.1405C3.84696 17.4183 3.88632 17.5337 3.91989 17.5996C4.02536 17.8065 4.19363 17.9748 4.40061 18.0803C4.4665 18.1138 4.58185 18.1532 4.85969 18.1759C5.14805 18.1995 5.5251 18.2002 6.1 18.2002H17.9C18.4749 18.2002 18.8519 18.1995 19.1403 18.1759C19.4181 18.1532 19.5335 18.1138 19.5994 18.0803C19.8063 17.9748 19.9746 17.8065 20.0801 17.5996C20.1137 17.5337 20.153 17.4183 20.1757 17.1405C20.1993 16.8521 20.2 16.4751 20.2 15.9002V10.9001H3.8Z" fill="#3F621A"/>
</svg>
