<svg width="24" height="24" viewBox="0 0 24 24" fill="none" xmlns="http://www.w3.org/2000/svg">
<path fill-rule="evenodd" clip-rule="evenodd" d="M3.89998 12.0001C3.89998 11.2738 3.99557 10.5698 4.17485 9.9001H8.22553C8.14547 10.5714 8.09998 11.2728 8.09998 12.0001C8.09998 12.7274 8.14547 13.4288 8.22553 14.1001H4.17485C3.99557 13.4304 3.89998 12.7264 3.89998 12.0001ZM8.53173 15.9001H4.89896C5.94101 17.7934 7.71825 19.2251 9.84605 19.8106C9.37021 18.7712 8.87323 17.4447 8.53173 15.9001ZM14.1539 19.8106C16.2817 19.2251 18.0589 17.7934 19.101 15.9001H15.4682C15.1267 17.4447 14.6297 18.7712 14.1539 19.8106ZM13.62 15.9001C13.1772 17.703 12.5129 19.1531 12 20.0984C11.4871 19.1531 10.8227 17.703 10.38 15.9001H13.62ZM13.9602 14.1001H10.0398C9.95114 13.432 9.89998 12.7301 9.89998 12.0001C9.89998 11.2701 9.95114 10.5682 10.0398 9.9001H13.9602C14.0488 10.5682 14.1 11.2701 14.1 12.0001C14.1 12.7301 14.0488 13.432 13.9602 14.1001ZM15.7744 14.1001H19.8251C20.0044 13.4304 20.1 12.7264 20.1 12.0001C20.1 11.2738 20.0044 10.5698 19.8251 9.9001H15.7744C15.8545 10.5714 15.9 11.2728 15.9 12.0001C15.9 12.7274 15.8545 13.4288 15.7744 14.1001ZM15.4682 8.1001H19.101C18.0589 6.20677 16.2817 4.77507 14.1539 4.1896C14.6297 5.22897 15.1267 6.55544 15.4682 8.1001ZM9.84608 4.1896C7.71827 4.77507 5.94102 6.20678 4.89896 8.1001H8.53174C8.87325 6.55544 9.37024 5.22898 9.84608 4.1896ZM10.38 8.1001H13.6199C13.1772 6.29722 12.5129 4.84716 12 3.90193C11.4871 4.84716 10.8227 6.29722 10.38 8.1001ZM12 2.1001C6.53236 2.1001 2.09998 6.53248 2.09998 12.0001C2.09998 17.4677 6.53236 21.9001 12 21.9001C17.4676 21.9001 21.9 17.4677 21.9 12.0001C21.9 6.53248 17.4676 2.1001 12 2.1001Z" fill="#107569"/>
</svg>
