<svg width="16" height="16" viewBox="0 0 16 16" fill="none" xmlns="http://www.w3.org/2000/svg">
<path fill-rule="evenodd" clip-rule="evenodd" d="M7.25262 0.107178L7.2855 0.107178C7.69972 0.107178 8.0355 0.442964 8.0355 0.857178C8.0355 1.27139 7.69972 1.60718 7.2855 1.60718C6.14356 1.60718 5.33193 1.60775 4.69753 1.65922C4.07138 1.71001 3.68529 1.8066 3.38146 1.96141C2.76994 2.273 2.27275 2.77018 1.96116 3.38171C1.80603 3.68618 1.70965 4.07043 1.65894 4.69106C1.60752 5.32044 1.60693 6.1247 1.60693 7.25718V8.74289C1.60693 9.87537 1.60752 10.6796 1.65894 11.309C1.70965 11.9296 1.80603 12.3139 1.96116 12.6184C2.27275 13.2299 2.76994 13.7271 3.38146 14.0387C3.68529 14.1935 4.07138 14.2901 4.69753 14.3408C5.33193 14.3923 6.14356 14.3929 7.2855 14.3929C7.69972 14.3929 8.0355 14.7287 8.0355 15.1429C8.0355 15.5571 7.69972 15.8929 7.2855 15.8929H7.2526C6.15084 15.8929 5.2784 15.8929 4.57624 15.8359C3.85885 15.7777 3.2523 15.6563 2.70048 15.3752C1.80671 14.9198 1.08005 14.1931 0.624653 13.2993C0.343815 12.7482 0.222208 12.1445 0.163921 11.4312C0.106923 10.7335 0.106928 9.86803 0.106934 8.77589V7.22418C0.106928 6.13203 0.106923 5.26653 0.163921 4.56891C0.222208 3.85552 0.343815 3.2519 0.624653 2.70072C1.08005 1.80695 1.80671 1.0803 2.70048 0.624897C3.2523 0.34373 3.85885 0.222328 4.57624 0.164131C5.27841 0.107168 6.15085 0.107172 7.25262 0.107178ZM11.7552 4.61256C12.0481 4.31967 12.5229 4.31967 12.8158 4.61256L15.673 7.4697C15.9659 7.7626 15.9659 8.23747 15.673 8.53036L12.8158 11.3875C12.5229 11.6804 12.0481 11.6804 11.7552 11.3875C11.4623 11.0946 11.4623 10.6197 11.7552 10.3268L13.332 8.75003H6.57122C6.157 8.75003 5.82122 8.41425 5.82122 8.00003C5.82122 7.58582 6.157 7.25003 6.57122 7.25003H13.332L11.7552 5.67322C11.4623 5.38033 11.4623 4.90546 11.7552 4.61256Z" fill="#344054"/>
</svg>
