<svg width="24" height="24" viewBox="0 0 24 24" fill="none" xmlns="http://www.w3.org/2000/svg">
<path fill-rule="evenodd" clip-rule="evenodd" d="M7.59998 20.9001L7.63331 20.9001C8.02478 20.9001 8.37133 20.9001 8.65846 20.8767C8.96425 20.8517 9.2811 20.7957 9.58956 20.6385C10.0411 20.4084 10.4083 20.0413 10.6384 19.5897C10.7956 19.2812 10.8516 18.9644 10.8766 18.6586C10.9 18.3714 10.9 18.025 10.9 17.6335L10.9 17.6001V6.4001L10.9 6.36677C10.9 5.97526 10.9 5.62877 10.8766 5.34162C10.8516 5.03583 10.7956 4.71898 10.6384 4.41052C10.4083 3.95893 10.0411 3.59178 9.58956 3.36168C9.2811 3.20452 8.96425 3.14851 8.65846 3.12353C8.37133 3.10007 8.02486 3.10008 7.63339 3.1001L7.59998 3.1001H6.39998L6.36664 3.1001C5.97517 3.10008 5.62863 3.10007 5.34149 3.12353C5.03571 3.14851 4.71886 3.20452 4.4104 3.36168C3.95881 3.59178 3.59166 3.95893 3.36156 4.41052C3.2044 4.71898 3.14839 5.03583 3.1234 5.34161C3.09994 5.62875 3.09996 5.97522 3.09998 6.3667L3.09998 6.4001L3.09998 17.6001L3.09998 17.6334C3.09996 18.0249 3.09994 18.3714 3.1234 18.6586C3.14839 18.9644 3.2044 19.2812 3.36156 19.5897C3.59166 20.0413 3.95881 20.4084 4.4104 20.6385C4.71886 20.7957 5.03571 20.8517 5.34149 20.8767C5.62862 20.9001 5.97508 20.9001 6.36654 20.9001L6.39998 20.9001H7.59998ZM8.77237 19.0347C8.75996 19.041 8.70636 19.0668 8.51189 19.0827C8.30691 19.0994 8.03487 19.1001 7.59998 19.1001H6.39998C5.96509 19.1001 5.69305 19.0994 5.48807 19.0827C5.2936 19.0668 5.24 19.041 5.22758 19.0347C5.11469 18.9772 5.0229 18.8854 4.96537 18.7725C4.95905 18.7601 4.93331 18.7065 4.91743 18.512C4.90068 18.307 4.89998 18.035 4.89998 17.6001L4.89998 6.4001C4.89998 5.96521 4.90068 5.69317 4.91743 5.48819C4.93331 5.29372 4.95905 5.24012 4.96537 5.22771C5.0229 5.11481 5.11469 5.02302 5.22758 4.9655C5.24 4.95917 5.2936 4.93344 5.48807 4.91755C5.69305 4.9008 5.96509 4.9001 6.39998 4.9001H7.59998C8.03487 4.9001 8.30691 4.9008 8.51189 4.91755C8.70636 4.93344 8.75996 4.95917 8.77237 4.9655C8.88527 5.02302 8.97706 5.11481 9.03458 5.22771C9.04091 5.24012 9.06664 5.29372 9.08253 5.48819C9.09928 5.69317 9.09998 5.96521 9.09998 6.4001L9.09998 17.6001C9.09998 18.035 9.09928 18.307 9.08253 18.512C9.06664 18.7065 9.04091 18.7601 9.03458 18.7725C8.97706 18.8854 8.88527 18.9772 8.77237 19.0347ZM17.6333 10.9001L17.6 10.9001H16.4L16.3666 10.9001C15.9751 10.9001 15.6286 10.9001 15.3415 10.8767C15.0357 10.8517 14.7189 10.7957 14.4104 10.6385C13.9588 10.4084 13.5917 10.0413 13.3616 9.58968C13.2044 9.28122 13.1484 8.96437 13.1234 8.65859C13.0999 8.37143 13.1 8.02494 13.1 7.63344L13.1 7.6001V6.4001L13.1 6.36676C13.1 5.97526 13.0999 5.62877 13.1234 5.34161C13.1484 5.03583 13.2044 4.71898 13.3616 4.41052C13.5917 3.95893 13.9588 3.59178 14.4104 3.36168C14.7189 3.20452 15.0357 3.14851 15.3415 3.12353C15.6286 3.10007 15.9751 3.10008 16.3666 3.1001L16.4 3.1001L17.6 3.1001L17.6333 3.1001C18.0248 3.10008 18.3713 3.10007 18.6585 3.12353C18.9642 3.14851 19.2811 3.20452 19.5896 3.36169C20.0411 3.59178 20.4083 3.95893 20.6384 4.41052C20.7956 4.71898 20.8516 5.03583 20.8766 5.34162C20.9 5.62877 20.9 5.97526 20.9 6.36677L20.9 6.4001V7.6001L20.9 7.63343C20.9 8.02494 20.9 8.37143 20.8766 8.65859C20.8516 8.96437 20.7956 9.28122 20.6384 9.58968C20.4083 10.0413 20.0411 10.4084 19.5896 10.6385C19.2811 10.7957 18.9642 10.8517 18.6585 10.8767C18.3713 10.9001 18.0248 10.9001 17.6333 10.9001ZM18.5119 9.08265C18.7064 9.06676 18.76 9.04103 18.7724 9.0347C18.8853 8.97718 18.9771 8.88539 19.0346 8.7725C19.0409 8.76008 19.0666 8.70648 19.0825 8.51201C19.0993 8.30703 19.1 8.03499 19.1 7.6001V6.4001C19.1 5.96521 19.0993 5.69317 19.0825 5.48819C19.0666 5.29372 19.0409 5.24012 19.0346 5.22771C18.9771 5.11481 18.8853 5.02302 18.7724 4.9655C18.76 4.95917 18.7064 4.93344 18.5119 4.91755C18.3069 4.9008 18.0349 4.9001 17.6 4.9001L16.4 4.9001C15.9651 4.9001 15.693 4.9008 15.4881 4.91755C15.2936 4.93344 15.24 4.95917 15.2276 4.9655C15.1147 5.02302 15.0229 5.11481 14.9654 5.22771C14.959 5.24012 14.9333 5.29372 14.9174 5.48819C14.9007 5.69317 14.9 5.96521 14.9 6.4001V7.6001C14.9 8.03499 14.9007 8.30703 14.9174 8.51201C14.9333 8.70648 14.959 8.76008 14.9654 8.77249C15.0229 8.88539 15.1147 8.97718 15.2276 9.0347C15.24 9.04103 15.2936 9.06676 15.4881 9.08265C15.693 9.0994 15.9651 9.1001 16.4 9.1001L17.6 9.1001C18.0349 9.1001 18.3069 9.0994 18.5119 9.08265ZM17.6 20.9001L17.6333 20.9001C18.0248 20.9001 18.3713 20.9001 18.6585 20.8767C18.9642 20.8517 19.2811 20.7957 19.5896 20.6385C20.0411 20.4084 20.4083 20.0413 20.6384 19.5897C20.7956 19.2812 20.8516 18.9644 20.8766 18.6586C20.9 18.3714 20.9 18.0249 20.9 17.6334L20.9 17.6001V16.4001L20.9 16.3668C20.9 15.9753 20.9 15.6288 20.8766 15.3416C20.8516 15.0358 20.7956 14.719 20.6384 14.4105C20.4083 13.9589 20.0411 13.5918 19.5896 13.3617C19.2811 13.2045 18.9642 13.1485 18.6585 13.1235C18.3713 13.1001 18.0249 13.1001 17.6334 13.1001L17.6 13.1001H16.4L16.3666 13.1001C15.9752 13.1001 15.6286 13.1001 15.3415 13.1235C15.0357 13.1485 14.7189 13.2045 14.4104 13.3617C13.9588 13.5918 13.5917 13.9589 13.3616 14.4105C13.2044 14.719 13.1484 15.0358 13.1234 15.3416C13.0999 15.6288 13.1 15.9753 13.1 16.3668L13.1 16.4001V17.6001L13.1 17.6334C13.1 18.0249 13.0999 18.3714 13.1234 18.6586C13.1484 18.9644 13.2044 19.2812 13.3616 19.5897C13.5917 20.0413 13.9588 20.4084 14.4104 20.6385C14.7189 20.7957 15.0357 20.8517 15.3415 20.8767C15.6286 20.9001 15.9751 20.9001 16.3665 20.9001L16.4 20.9001H17.6ZM18.7724 19.0347C18.76 19.041 18.7064 19.0668 18.5119 19.0827C18.3069 19.0994 18.0349 19.1001 17.6 19.1001H16.4C15.9651 19.1001 15.693 19.0994 15.4881 19.0827C15.2936 19.0668 15.24 19.041 15.2276 19.0347C15.1147 18.9772 15.0229 18.8854 14.9654 18.7725C14.959 18.7601 14.9333 18.7065 14.9174 18.512C14.9007 18.307 14.9 18.035 14.9 17.6001V16.4001C14.9 15.9652 14.9007 15.6932 14.9174 15.4882C14.9333 15.2937 14.959 15.2401 14.9654 15.2277C15.0229 15.1148 15.1147 15.023 15.2276 14.9655C15.24 14.9592 15.2936 14.9334 15.4881 14.9175C15.693 14.9008 15.9651 14.9001 16.4 14.9001H17.6C18.0349 14.9001 18.3069 14.9008 18.5119 14.9175C18.7064 14.9334 18.76 14.9592 18.7724 14.9655C18.8853 15.023 18.9771 15.1148 19.0346 15.2277C19.0409 15.2401 19.0666 15.2937 19.0825 15.4882C19.0993 15.6932 19.1 15.9652 19.1 16.4001V17.6001C19.1 18.035 19.0993 18.307 19.0825 18.512C19.0666 18.7065 19.0409 18.7601 19.0346 18.7725C18.9771 18.8854 18.8853 18.9772 18.7724 19.0347Z" fill="#6941C6"/>
</svg>
