<svg width="15" height="15" viewBox="0 0 15 15" fill="none" xmlns="http://www.w3.org/2000/svg">
<path fill-rule="evenodd" clip-rule="evenodd" d="M7.75003 0.25C8.19492 0.25 8.55558 0.610659 8.55558 1.05556V6.69444L14.1944 6.69444C14.6393 6.69444 15 7.0551 15 7.5C15 7.9449 14.6393 8.30556 14.1944 8.30556L8.55558 8.30555V13.9444C8.55558 14.3893 8.19492 14.75 7.75003 14.75C7.30513 14.75 6.94447 14.3893 6.94447 13.9444V8.30555H1.30556C0.860659 8.30555 0.5 7.94489 0.5 7.49999C0.5 7.0551 0.860659 6.69444 1.30556 6.69444H6.94447V1.05556C6.94447 0.610659 7.30513 0.25 7.75003 0.25Z" fill="white"/>
</svg>
