<svg width="24" height="24" viewBox="0 0 24 24" fill="none" xmlns="http://www.w3.org/2000/svg">
<path d="M9.25004 11.0001C10.2165 11.0001 11 10.2166 11 9.2501C11 8.2836 10.2165 7.5001 9.25004 7.5001C8.28354 7.5001 7.50004 8.2836 7.50004 9.2501C7.50004 10.2166 8.28354 11.0001 9.25004 11.0001Z" fill="#026AA2"/>
<path d="M9.25004 16.5001C10.2165 16.5001 11 15.7166 11 14.7501C11 13.7836 10.2165 13.0001 9.25004 13.0001C8.28354 13.0001 7.50004 13.7836 7.50004 14.7501C7.50004 15.7166 8.28354 16.5001 9.25004 16.5001Z" fill="#026AA2"/>
<path d="M14.75 11.0001C15.7165 11.0001 16.5 10.2166 16.5 9.2501C16.5 8.2836 15.7165 7.5001 14.75 7.5001C13.7835 7.5001 13 8.2836 13 9.2501C13 10.2166 13.7835 11.0001 14.75 11.0001Z" fill="#026AA2"/>
<path d="M14.75 16.5001C15.7165 16.5001 16.5 15.7166 16.5 14.7501C16.5 13.7836 15.7165 13.0001 14.75 13.0001C13.7835 13.0001 13 13.7836 13 14.7501C13 15.7166 13.7835 16.5001 14.75 16.5001Z" fill="#026AA2"/>
<path fill-rule="evenodd" clip-rule="evenodd" d="M8.22781 3.1001C6.65816 3.1001 5.9085 3.22676 5.14635 3.63436C4.49681 3.98174 3.98168 4.49687 3.6343 5.14641C3.2267 5.90856 3.10004 6.65822 3.10004 8.22787V15.7723C3.10004 17.342 3.2267 18.0916 3.6343 18.8538C3.98168 19.5033 4.49681 20.0185 5.14635 20.3658C5.9085 20.7734 6.65816 20.9001 8.22781 20.9001H15.7723C17.3419 20.9001 18.0916 20.7734 18.8537 20.3658C19.5033 20.0185 20.0184 19.5033 20.3658 18.8538C20.7734 18.0916 20.9 17.342 20.9 15.7723V8.22787C20.9 6.65822 20.7734 5.90856 20.3658 5.14641C20.0184 4.49687 19.5033 3.98174 18.8537 3.63436C18.0916 3.22676 17.3419 3.1001 15.7723 3.1001H8.22781ZM5.99522 5.22163C6.35721 5.02804 6.74114 4.9001 8.22781 4.9001H15.7723C17.2589 4.9001 17.6429 5.02804 18.0049 5.22163C18.3407 5.40124 18.5989 5.65944 18.7785 5.99528C18.9721 6.35727 19.1 6.7412 19.1 8.22787V15.7723C19.1 17.259 18.9721 17.6429 18.7785 18.0049C18.5989 18.3408 18.3407 18.599 18.0049 18.7786C17.6429 18.9722 17.2589 19.1001 15.7723 19.1001H8.22781C6.74114 19.1001 6.3572 18.9722 5.99522 18.7786C5.65937 18.599 5.40118 18.3408 5.22157 18.0049C5.02798 17.6429 4.90004 17.259 4.90004 15.7723V8.22787C4.90004 6.7412 5.02798 6.35727 5.22157 5.99528C5.40118 5.65944 5.65937 5.40124 5.99522 5.22163Z" fill="#026AA2"/>
</svg>
