<svg width="55" height="55" viewBox="0 0 55 55" fill="none" xmlns="http://www.w3.org/2000/svg">
<path d="M0 26C0 11.6406 11.6406 0 26 0H29C43.3594 0 55 11.6406 55 26V29C55 43.3594 43.3594 55 29 55H26C11.6406 55 0 43.3594 0 29V26Z" fill="#FEF3F2"/>
<path d="M8.46143 27.5C8.46143 16.9854 16.9852 8.46155 27.4999 8.46155V8.46155C38.0145 8.46155 46.5383 16.9854 46.5383 27.5V27.5C46.5383 38.0147 38.0145 46.5385 27.4999 46.5385V46.5385C16.9852 46.5385 8.46143 38.0147 8.46143 27.5V27.5Z" fill="#FEE4E2"/>
<path fill-rule="evenodd" clip-rule="evenodd" d="M30.3782 24.3958C30.8314 24.4242 31.1758 24.8145 31.1474 25.2676L30.6907 32.5753C30.6624 33.0285 30.2721 33.3729 29.8189 33.3446C29.3658 33.3162 29.0214 32.9259 29.0497 32.4728L29.5064 25.1651C29.5347 24.7119 29.925 24.3675 30.3782 24.3958Z" fill="#D92D20"/>
<path fill-rule="evenodd" clip-rule="evenodd" d="M25.7083 24.3958C25.2552 24.4242 24.9108 24.8145 24.9391 25.2676L25.3958 32.5753C25.4242 33.0285 25.8145 33.3729 26.2676 33.3446C26.7208 33.3162 27.0652 32.9259 27.0369 32.4728L26.5801 25.1651C26.5518 24.7119 26.1615 24.3675 25.7083 24.3958Z" fill="#D92D20"/>
<path fill-rule="evenodd" clip-rule="evenodd" d="M19.8221 20.7404C19.3681 20.7404 19 21.1085 19 21.5625C19 22.0165 19.3681 22.3846 19.8221 22.3846H20.9004L21.9551 33.6348C21.9965 34.0767 22.032 34.4549 22.0857 34.7651C22.1425 35.0923 22.2291 35.4076 22.4063 35.7054C22.675 36.1571 23.0721 36.5187 23.5469 36.7441C23.8599 36.8927 24.1819 36.9495 24.513 36.9754C24.8269 37 25.2067 37 25.6506 37H30.4359C30.8798 37 31.2597 37 31.5735 36.9754C31.9047 36.9495 32.2266 36.8927 32.5396 36.7441C33.0145 36.5187 33.4115 36.1571 33.6803 35.7054C33.8574 35.4076 33.944 35.0923 34.0008 34.7651C34.0546 34.4549 34.09 34.0768 34.1314 33.6348L35.1861 22.3846H36.2644C36.7185 22.3846 37.0865 22.0165 37.0865 21.5625C37.0865 21.1085 36.7185 20.7404 36.2644 20.7404H31.5104C31.1393 19.1692 29.7278 18 28.0433 18C26.3587 18 24.9472 19.1692 24.5761 20.7404H19.8221ZM23.5893 33.4509C23.6344 33.9316 23.6643 34.2451 23.7058 34.4841C23.7455 34.7132 23.7861 34.8088 23.8193 34.8647C23.9213 35.036 24.0719 35.1732 24.252 35.2587C24.3108 35.2866 24.4097 35.3181 24.6415 35.3362C24.8834 35.3552 25.1983 35.3558 25.6811 35.3558H30.4055C30.8883 35.3558 31.2031 35.3552 31.445 35.3362C31.6768 35.3181 31.7757 35.2866 31.8345 35.2587C32.0146 35.1732 32.1653 35.036 32.2672 34.8647C32.3005 34.8088 32.341 34.7132 32.3807 34.4841C32.4222 34.2451 32.4522 33.9316 32.4972 33.4509L33.5347 22.3846H22.5518L23.5893 33.4509ZM28.0433 19.6442C27.278 19.6442 26.6175 20.0923 26.3096 20.7404H29.7769C29.4691 20.0923 28.8085 19.6442 28.0433 19.6442Z" fill="#D92D20"/>
</svg>