<svg width="55" height="55" viewBox="0 0 55 55" fill="none" xmlns="http://www.w3.org/2000/svg">
<path d="M0 26C0 11.6406 11.6406 0 26 0H29C43.3594 0 55 11.6406 55 26V29C55 43.3594 43.3594 55 29 55H26C11.6406 55 0 43.3594 0 29V26Z" fill="#F9F5FF"/>
<path d="M8.46143 27.5C8.46143 16.9854 16.9852 8.46155 27.4999 8.46155V8.46155C38.0145 8.46155 46.5383 16.9854 46.5383 27.5V27.5C46.5383 38.0147 38.0145 46.5385 27.4999 46.5385V46.5385C16.9852 46.5385 8.46143 38.0147 8.46143 27.5V27.5Z" fill="#F4EBFF"/>
<path d="M34.7537 36.2657C33.9915 36.6733 33.2419 36.8 31.6722 36.8H29.0189C29.0126 36.8001 29.0063 36.8002 29 36.8002C28.5029 36.8002 28.1 36.3973 28.1 35.9002C28.1 35.4031 28.5029 35.0002 29 35.0002C29 35.0002 29 35.0002 29 35.0002L31.6722 35C33.1589 35 33.5428 34.8721 33.9048 34.6785C34.2407 34.4989 34.4989 34.2407 34.6785 33.9048C34.8721 33.5428 35 33.1589 35 31.6722L35 24.1278C35 22.6411 34.8721 22.2572 34.6785 21.8952C34.4989 21.5593 34.2407 21.3011 33.9048 21.1215C33.5428 20.9279 33.1589 20.8 31.6722 20.8L29.0189 20.8C29.0126 20.8001 29.0063 20.8002 29 20.8002C28.5029 20.8002 28.1 20.3973 28.1 19.9002C28.1 19.4031 28.5029 19.0002 29 19.0002C29 19.0002 29 19.0002 29 19.0002L31.6722 19C33.2419 19 33.9915 19.1267 34.7537 19.5343C35.4032 19.8816 35.9184 20.3968 36.2657 21.0463C36.6733 21.8085 36.8 22.5581 36.8 24.1278V31.6722C36.8 33.2419 36.6733 33.9915 36.2657 34.7537C35.9184 35.4032 35.4032 35.9184 34.7537 36.2657Z" fill="#7F56D9"/>
<path d="M25.3636 31.2637L27.8271 28.8002H19.9C19.4029 28.8002 19 28.3973 19 27.9002C19 27.4031 19.4029 27.0002 19.9 27.0002H27.8273L25.3636 24.5365C25.0121 24.185 25.0121 23.6152 25.3636 23.2637C25.7151 22.9122 26.2849 22.9122 26.6364 23.2637L30.6364 27.2637C30.9879 27.6152 30.9879 28.185 30.6364 28.5365L26.6364 32.5365C26.2849 32.888 25.7151 32.888 25.3636 32.5365C25.0121 32.185 25.0121 31.6152 25.3636 31.2637Z" fill="#7F56D9"/>
</svg>
