<svg width="94" height="94" viewBox="0 0 94 94" fill="none" xmlns="http://www.w3.org/2000/svg">
<path d="M47.0001 0.330953C47.1152 37.9719 59.694 45.6664 93.6691 47C54.4761 46.2661 47.6501 59.5534 47.0001 93.669C46.2001 58.5183 36.6763 47.6984 1.29863 47.0161C0.978156 47.0116 0.655634 47.0062 0.331055 47C0.655709 47.0045 0.97823 47.0099 1.29863 47.0161C36.2687 47.5065 46.8625 37.7368 47.0001 0.330953Z" fill="white"/>
<path d="M47.0001 0.330953C47.1152 37.9719 59.694 45.6664 93.6691 47C54.4761 46.2661 47.6501 59.5534 47.0001 93.669C46.1929 58.1999 36.5031 47.5044 0.331055 47C36.0736 47.6832 46.8612 38.0796 47.0001 0.330953Z" stroke="white"/>
<path d="M17.6672 2C17.7059 14.6364 21.9287 17.2195 33.3345 17.6672C20.177 17.4209 17.8855 21.8815 17.6672 33.3345C17.3987 21.534 14.2014 17.9017 2.32483 17.6726C2.21724 17.6711 2.10896 17.6693 2 17.6672C2.10899 17.6688 2.21726 17.6706 2.32483 17.6726C14.0646 17.8373 17.621 14.5575 17.6672 2Z" fill="#FEC84B"/>
<path d="M17.6672 2C17.7059 14.6364 21.9287 17.2195 33.3345 17.6672C20.177 17.4209 17.8855 21.8815 17.6672 33.3345C17.3962 21.4272 14.1433 17.8366 2 17.6672C13.9991 17.8966 17.6206 14.6726 17.6672 2Z" stroke="#FEC84B"/>
<path d="M82.9167 24C82.9338 29.5787 84.7981 30.7191 89.8335 30.9167C84.0248 30.808 83.0131 32.7773 82.9167 37.8335C82.7982 32.6239 81.3867 31.0203 76.1434 30.9191C76.0959 30.9185 76.0481 30.9177 76 30.9167C76.0481 30.9174 76.0959 30.9182 76.1434 30.9191C81.3263 30.9918 82.8964 29.5439 82.9167 24Z" fill="#FEC84B"/>
<path d="M82.9167 24C82.9338 29.5787 84.7981 30.7191 89.8335 30.9167C84.0248 30.808 83.0131 32.7773 82.9167 37.8335C82.7971 32.5767 81.361 30.9915 76 30.9167C81.2974 31.018 82.8962 29.5947 82.9167 24Z" stroke="#FEC84B"/>
</svg>
