<svg width="55" height="55" viewBox="0 0 55 55" fill="none" xmlns="http://www.w3.org/2000/svg">
<path d="M0 26C0 11.6406 11.6406 0 26 0H29C43.3594 0 55 11.6406 55 26V29C55 43.3594 43.3594 55 29 55H26C11.6406 55 0 43.3594 0 29V26Z" fill="#FFFAEB"/>
<path d="M8.46143 27.5C8.46143 16.9854 16.9852 8.46155 27.4999 8.46155V8.46155C38.0145 8.46155 46.5383 16.9854 46.5383 27.5V27.5C46.5383 38.0147 38.0145 46.5385 27.4999 46.5385V46.5385C16.9852 46.5385 8.46143 38.0147 8.46143 27.5V27.5Z" fill="#FEF0C7"/>
<path d="M27.5 35.2C31.7526 35.2 35.2 31.7526 35.2 27.5C35.2 23.2474 31.7526 19.8 27.5 19.8C23.2474 19.8 19.8 23.2474 19.8 27.5C19.8 31.7526 23.2474 35.2 27.5 35.2ZM27.5 37C22.2533 37 18 32.7467 18 27.5C18 22.2533 22.2533 18 27.5 18C32.7467 18 37 22.2533 37 27.5C37 32.7467 32.7467 37 27.5 37ZM27.5 25.2463C26.8096 25.2463 26.25 24.6867 26.25 23.9963C26.25 23.306 26.8096 22.7463 27.5 22.7463C28.1904 22.7463 28.75 23.306 28.75 23.9963C28.75 24.6867 28.1904 25.2463 27.5 25.2463ZM26.6 27.9274C26.6 27.4132 27.0029 26.9963 27.5 26.9963C27.9971 26.9963 28.4 27.4132 28.4 27.9274V31.5653C28.4 32.0795 27.9971 32.4963 27.5 32.4963C27.0029 32.4963 26.6 32.0795 26.6 31.5653V27.9274Z" fill="#DC6803"/>
</svg>
