<svg width="1114" height="746" viewBox="0 0 1114 746" fill="none" xmlns="http://www.w3.org/2000/svg">
<path d="M0 20C0 8.95429 8.95431 0 20 0H1093.67C1104.72 0 1113.67 8.95431 1113.67 20V745.008H0L0 20Z" fill="black"/>
<mask id="mask0_70_8" style="mask-type:alpha" maskUnits="userSpaceOnUse" x="17" y="17" width="1079" height="694">
<path d="M17.7541 28.8168C17.7541 22.3704 23.1502 17.1445 29.8067 17.1445H496.024C497.839 17.1445 499.311 18.5698 499.311 20.3279V30.9391C499.311 33.8693 501.764 36.2447 504.789 36.2447H608.88C611.906 36.2447 614.359 33.8693 614.359 30.9391V20.3279C614.359 18.5698 615.83 17.1445 617.646 17.1445H1083.86C1090.52 17.1445 1095.92 22.3704 1095.92 28.8168C1095.92 249.883 1095.92 489.652 1095.92 710.719H17.7543C17.7464 489.652 17.7541 249.883 17.7541 28.8168Z" fill="#FF3E3E"/>
</mask>
<g mask="url(#mask0_70_8)">
<rect x="17.7542" y="17.1445" width="1078.16" height="693.574" rx="1" fill="white"/>
</g>
</svg>
