<svg width="24" height="24" viewBox="0 0 24 24" fill="none" xmlns="http://www.w3.org/2000/svg">
<path d="M12.0001 0.911377L13.9748 1.51897L15.1899 3.64555L17.6203 4.55695L19.7469 4.10125L21.7216 5.77214L21.114 8.35442L20.3545 9.7215L21.114 11.8481L22.7849 12.6076V15.9494L18.6836 17.3164L17.9241 21.2658L15.1899 22.6329L12.0001 20.6582L8.3545 22.6329L5.31653 21.2658L5.62032 18.0759L3.49374 16.405L1.36716 15.4937L0.607666 12.9114L3.49374 11.2405V8.65821L2.27855 6.68353L3.94944 4.10125L7.13931 4.55695L9.41779 3.64555L10.1773 0.911377H12.0001Z" fill="url(#paint0_angular_301_253)"/>
<path d="M12.0001 0.911377L13.9748 1.51897L15.1899 3.64555L17.6203 4.55695L19.7469 4.10125L21.7216 5.77214L21.114 8.35442L20.3545 9.7215L21.114 11.8481L22.7849 12.6076V15.9494L18.6836 17.3164L17.9241 21.2658L15.1899 22.6329L12.0001 20.6582L8.3545 22.6329L5.31653 21.2658L5.62032 18.0759L3.49374 16.405L1.36716 15.4937L0.607666 12.9114L3.49374 11.2405V8.65821L2.27855 6.68353L3.94944 4.10125L7.13931 4.55695L9.41779 3.64555L10.1773 0.911377H12.0001Z" fill="url(#paint1_angular_301_253)"/>
<path fill-rule="evenodd" clip-rule="evenodd" d="M16.5005 12.0208C16.5005 14.4894 14.4856 16.4906 12 16.4906C9.51444 16.4906 7.49949 14.4894 7.49949 12.0208C7.49949 9.55221 9.51444 7.55101 12 7.55101C14.4856 7.55101 16.5005 9.55221 16.5005 12.0208ZM12 15.0007C13.657 15.0007 15.0003 13.6665 15.0003 12.0208C15.0003 10.3751 13.657 9.04094 12 9.04094C10.343 9.04094 8.99966 10.3751 8.99966 12.0208C8.99966 13.6665 10.343 15.0007 12 15.0007Z" fill="#7F56D9"/>
<path fill-rule="evenodd" clip-rule="evenodd" d="M12.6309 0.00228825C12.232 0.00220067 11.832 0.010722 11.4332 0.00137094C11.2283 -0.00343351 10.5089 -0.0202992 9.90424 0.460949C9.31101 0.933122 9.09007 1.65424 8.9569 2.18421C8.87724 2.50124 8.72304 2.90718 8.51458 3.29587C8.09407 3.46216 7.68859 3.65754 7.30066 3.87944C6.87884 3.79551 6.47957 3.66297 6.19082 3.52923C5.69287 3.29859 4.989 3.01489 4.24533 3.17675C3.48876 3.34143 3.04963 3.90787 2.92465 4.06908C2.69421 4.36634 2.45545 4.65954 2.21118 4.94568C2.07829 5.10135 1.61391 5.64533 1.60933 6.41343C1.60483 7.16802 2.0286 7.79243 2.35917 8.22946C2.56254 8.49834 2.78931 8.88697 2.96359 9.30552C2.83798 9.71936 2.74034 10.1451 2.67279 10.5804C2.3365 10.8737 1.96942 11.1178 1.674 11.2678C1.18422 11.5165 0.527362 11.8933 0.198562 12.5743C-0.135778 13.2667 0.0418814 13.9578 0.0926989 14.1555C0.1862 14.5192 0.271556 14.8869 0.347741 15.2546C0.389088 15.4542 0.533992 16.1536 1.14044 16.6308C1.73697 17.1002 2.49436 17.1523 3.04393 17.1622C3.36888 17.168 3.79623 17.2252 4.22008 17.3379C4.47536 17.7069 4.75643 18.0568 5.06067 18.3849C5.0749 18.8188 5.03474 19.2429 4.96773 19.5576C4.85384 20.0923 4.73496 20.8362 5.05964 21.5183C5.39048 22.2134 6.04344 22.5116 6.22997 22.5968C6.57289 22.7534 6.91378 22.9187 7.24889 23.0912C7.43072 23.1848 8.07002 23.5139 8.82614 23.3449C9.56851 23.179 10.0855 22.6264 10.4386 22.2082C10.6542 21.9529 10.9799 21.6488 11.3465 21.3873C11.7787 21.4168 12.2213 21.4168 12.6535 21.3873C13.0201 21.6488 13.3458 21.9529 13.5614 22.2082C13.9145 22.6264 14.4315 23.179 15.1739 23.3449C15.93 23.5139 16.5693 23.1848 16.7511 23.0912C17.0862 22.9187 17.4271 22.7534 17.77 22.5968C17.9566 22.5116 18.6095 22.2134 18.9404 21.5183C19.265 20.8362 19.1462 20.0923 19.0323 19.5576C18.9653 19.2429 18.9251 18.8188 18.9393 18.3849C19.2436 18.0568 19.5246 17.7069 19.7799 17.3379C20.2038 17.2252 20.6311 17.168 20.9561 17.1622C21.5056 17.1523 22.263 17.1002 22.8596 16.6308C23.466 16.1536 23.6109 15.4542 23.6523 15.2546C23.7284 14.8869 23.8138 14.5192 23.9073 14.1555C23.9581 13.9578 24.1358 13.2667 23.8014 12.5743C23.4726 11.8933 22.8158 11.5165 22.326 11.2678C22.0306 11.1178 21.6635 10.8737 21.3272 10.5804C21.2597 10.1451 21.162 9.71936 21.0364 9.30552C21.2107 8.88697 21.4375 8.49834 21.6408 8.22946C21.9714 7.79243 22.3952 7.16802 22.3907 6.41343C22.3861 5.64533 21.9217 5.10135 21.7888 4.94568C21.5446 4.65953 21.3058 4.36635 21.0753 4.06908C20.9504 3.90787 20.5112 3.34143 19.7547 3.17675C19.011 3.01489 18.3071 3.29859 17.8092 3.52923C17.5204 3.66297 17.1212 3.79551 16.6993 3.87944C16.3114 3.65754 15.9059 3.46216 15.4854 3.29587C15.277 2.90717 15.1228 2.50124 15.0431 2.18421C14.9151 1.67492 14.7104 1.01585 14.2018 0.551432C13.6059 0.00721243 12.904 0.00367873 12.6527 0.00241341L12.6309 0.00228825ZM17.0773 21.2739L16.126 21.7356C15.6504 21.9664 15.4126 22.0818 14.7108 21.2507C14.3173 20.7847 13.7013 20.2425 13.0274 19.8541C12.3548 19.9406 11.6452 19.9406 10.9726 19.8541C10.2987 20.2425 9.68273 20.7847 9.28922 21.2507C8.58744 22.0818 8.34962 21.9664 7.87399 21.7356L6.92273 21.2739C6.44709 21.0431 6.20928 20.9277 6.43542 19.8659C6.55999 19.281 6.61063 18.4825 6.51077 17.7269C6.00112 17.2413 5.55641 16.6888 5.19092 16.0836C4.47131 15.8148 3.6742 15.6833 3.07111 15.6725C1.98033 15.6529 1.92081 15.3964 1.80177 14.8833L1.56369 13.8573C1.44464 13.3443 1.38512 13.0878 2.35686 12.5944C2.89934 12.319 3.56543 11.8468 4.09633 11.2842C4.16107 10.5891 4.31634 9.92008 4.55031 9.289C4.32182 8.54541 3.92781 7.82269 3.55859 7.33456C2.90259 6.4673 3.0691 6.26271 3.40213 5.85354L4.06819 5.0352C4.40122 4.62603 4.56774 4.42144 5.55677 4.87954C6.09878 5.13058 6.86433 5.35826 7.62294 5.43262C8.20821 5.04702 8.84783 4.73653 9.52793 4.51498C9.95564 3.87618 10.2656 3.12947 10.4124 2.54497C10.677 1.49196 10.9416 1.49196 11.4708 1.49196L12.6199 1.49218C13.0895 1.49561 13.3385 1.5539 13.5876 2.54497C13.7344 3.12947 14.0444 3.87618 14.4721 4.51498C15.1522 4.73653 15.7918 5.04702 16.3771 5.43262C17.1357 5.35826 17.9012 5.13058 18.4432 4.87954C19.4323 4.42144 19.5988 4.62603 19.9318 5.0352L20.5979 5.85354C20.9309 6.26271 21.0974 6.4673 20.4414 7.33456C20.0722 7.82269 19.6782 8.54541 19.4497 9.289C19.6837 9.92008 19.8389 10.5891 19.9037 11.2842C20.4346 11.8468 21.1007 12.319 21.6431 12.5944C22.6149 13.0878 22.5554 13.3443 22.4363 13.8573L22.1982 14.8833C22.0792 15.3964 22.0197 15.6529 20.9289 15.6725C20.3258 15.6833 19.5287 15.8148 18.8091 16.0836C18.4436 16.6888 17.9989 17.2413 17.4892 17.7269C17.3894 18.4825 17.44 19.281 17.5646 19.8659C17.7907 20.9277 17.5529 21.0431 17.0773 21.2739Z" fill="#7F56D9"/>
<path d="M15.1897 10.1773L12.1518 8.35449L10.4809 8.65829L8.96189 9.72158L8.20239 11.3925L8.50619 13.6709L9.72138 15.3418L12.6075 15.6456L15.0378 14.2785L15.9492 12.9115L15.1897 10.1773Z" fill="white"/>
<path fill-rule="evenodd" clip-rule="evenodd" d="M16.5005 12.0208C16.5005 14.4894 14.4856 16.4906 12 16.4906C9.51444 16.4906 7.49949 14.4894 7.49949 12.0208C7.49949 9.55221 9.51444 7.55101 12 7.55101C14.4856 7.55101 16.5005 9.55221 16.5005 12.0208ZM12 15.0007C13.657 15.0007 15.0003 13.6665 15.0003 12.0208C15.0003 10.3751 13.657 9.04094 12 9.04094C10.343 9.04094 8.99966 10.3751 8.99966 12.0208C8.99966 13.6665 10.343 15.0007 12 15.0007Z" fill="#7F56D9"/>
<path fill-rule="evenodd" clip-rule="evenodd" d="M16.5005 12.0208C16.5005 14.4894 14.4856 16.4906 12 16.4906C9.51444 16.4906 7.49949 14.4894 7.49949 12.0208C7.49949 9.55221 9.51444 7.55101 12 7.55101C14.4856 7.55101 16.5005 9.55221 16.5005 12.0208ZM12 15.0007C13.657 15.0007 15.0003 13.6665 15.0003 12.0208C15.0003 10.3751 13.657 9.04094 12 9.04094C10.343 9.04094 8.99966 10.3751 8.99966 12.0208C8.99966 13.6665 10.343 15.0007 12 15.0007Z" fill="#7F56D9"/>
<defs>
<radialGradient id="paint0_angular_301_253" cx="0" cy="0" r="1" gradientUnits="userSpaceOnUse" gradientTransform="translate(12.0001 12.1519) rotate(-90) scale(12.6076 12.8721)">
<stop stop-color="#7F56D9"/>
<stop offset="0.5" stop-color="#8A66D9" stop-opacity="0.74"/>
<stop offset="1" stop-color="#D9D9D9" stop-opacity="0"/>
</radialGradient>
<radialGradient id="paint1_angular_301_253" cx="0" cy="0" r="1" gradientUnits="userSpaceOnUse" gradientTransform="translate(12.0001 12.1519) rotate(-90) scale(12.6076 12.8721)">
<stop stop-color="#7F56D9"/>
<stop offset="0.5" stop-color="#8A66D9" stop-opacity="0.74"/>
<stop offset="1" stop-color="#D9D9D9" stop-opacity="0"/>
</radialGradient>
</defs>
</svg>
